<?xml version="1.0" standalone="no"?>
<!DOCTYPE svg PUBLIC "-//W3C//DTD SVG 20010904//EN"
 "http://www.w3.org/TR/2001/REC-SVG-20010904/DTD/svg10.dtd">
<svg version="1.0" xmlns="http://www.w3.org/2000/svg"
 width="360.000000pt" height="353.000000pt" viewBox="0 0 360.000000 353.000000"
 preserveAspectRatio="xMidYMid meet">

<g transform="translate(0.000000,353.000000) scale(0.100000,-0.100000)"
fill="#836096" stroke="none">
<path d="M1770 2882 l-65 -17 -13 -60 c-15 -70 -17 -72 -37 -55 -9 8 -27 10
-49 6 -28 -5 -37 -13 -46 -41 -6 -19 -14 -35 -16 -35 -3 0 -27 12 -55 26 l-51
25 -36 -27 c-20 -15 -49 -39 -64 -54 l-28 -27 134 -12 c73 -7 159 -18 189 -25
l56 -13 26 38 c14 21 25 41 25 44 0 12 133 201 156 223 l25 22 -43 -1 c-24 -1
-72 -8 -108 -17z"/>
<path d="M795 2733 c-30 -101 -37 -193 -32 -383 5 -203 20 -292 83 -505 27
-92 33 -124 25 -137 -7 -12 -11 -105 -11 -267 l0 -249 50 -12 c33 -8 50 -17
50 -28 0 -27 51 -84 94 -103 22 -10 62 -19 88 -19 l47 0 20 -55 c12 -31 21
-62 21 -70 0 -9 14 -15 42 -17 39 -3 45 -8 81 -60 24 -35 47 -58 58 -58 11 0
32 -23 55 -60 29 -47 40 -58 50 -49 20 16 42 4 66 -36 15 -26 24 -33 31 -26
17 17 21 14 70 -31 75 -70 165 -148 172 -148 4 0 27 20 53 44 76 70 199 176
206 176 3 0 6 -12 6 -27 1 -28 1 -27 41 17 22 25 60 72 85 105 30 41 44 53 44
40 1 -18 3 -17 23 6 12 14 37 47 55 73 32 47 34 48 53 30 19 -17 20 -15 57 64
l37 82 43 0 c74 0 149 50 177 117 12 29 19 33 50 33 29 0 37 5 45 26 6 14 10
128 10 253 0 191 -2 231 -15 241 -18 15 -19 48 -4 87 19 52 69 257 84 348 22
131 30 353 16 465 -12 97 -36 190 -50 190 -4 0 -41 -23 -82 -52 -94 -66 -311
-282 -466 -464 -111 -131 -121 -140 -144 -132 -45 18 -171 38 -232 38 l-62 0
-28 51 c-43 77 -60 75 -107 -12 -18 -34 -23 -37 -82 -43 -35 -4 -90 -14 -122
-23 l-59 -16 -30 34 c-16 19 -42 48 -56 64 -210 242 -401 433 -505 506 -38 27
-73 49 -77 49 -4 0 -15 -26 -24 -57z m2039 -79 c11 -80 6 -294 -8 -404 -16
-118 -45 -265 -78 -388 l-21 -83 -31 29 c-42 39 -85 54 -140 51 l-47 -3 -40
66 c-41 69 -96 124 -161 161 -21 11 -38 24 -38 29 0 4 19 29 43 56 23 26 69
79 102 117 73 85 396 415 405 415 4 0 10 -21 14 -46z m-1821 -91 c71 -71 193
-200 270 -287 l141 -159 -25 -19 c-108 -83 -173 -151 -200 -211 -11 -24 -17
-27 -66 -27 -61 0 -126 -28 -144 -62 -16 -30 -22 -17 -58 138 -35 147 -58 328
-68 514 -6 119 2 240 14 240 4 0 65 -57 136 -127z m1130 -472 c42 -11 97 -32
122 -46 61 -36 135 -112 168 -173 l27 -50 -25 -38 c-14 -20 -25 -50 -25 -66 0
-28 0 -28 -30 -13 -22 11 -63 15 -168 15 -135 0 -139 -1 -183 -29 -34 -21 -51
-41 -68 -80 -18 -42 -26 -51 -39 -45 -36 16 -102 16 -127 0 -24 -16 -24 -15
-45 31 -24 54 -53 89 -92 109 -37 19 -283 19 -317 0 -24 -13 -26 -12 -63 51
-21 36 -38 71 -38 78 0 22 85 129 131 167 116 94 234 118 539 112 115 -2 175
-8 233 -23z m-975 -317 c22 -15 22 -16 22 -324 l0 -310 -23 -15 c-29 -18 -77
-11 -106 17 -20 18 -21 28 -21 296 0 152 3 288 7 301 6 22 51 50 83 51 9 0 26
-7 38 -16z m1428 6 c53 -20 53 -23 54 -328 0 -174 -4 -291 -10 -302 -14 -26
-80 -43 -113 -31 -36 14 -45 69 -23 130 22 62 23 309 1 371 -41 118 2 194 91
160z m-266 -81 c52 -12 78 -31 114 -84 25 -36 26 -44 26 -182 0 -123 -3 -149
-20 -182 -25 -50 -60 -77 -123 -96 -160 -48 -309 25 -355 175 -26 84 -23 212
6 272 35 71 71 92 167 98 44 3 94 6 110 7 17 1 50 -3 75 -8z m-658 -24 c37
-25 78 -95 78 -133 l0 -23 30 22 c20 15 44 22 75 22 61 0 85 -22 85 -80 l0
-43 -67 -2 -68 -2 68 -3 67 -4 0 -38 c0 -45 -9 -51 -84 -51 -64 0 -91 22 -84
70 7 45 -10 48 -17 3 -22 -130 -73 -211 -158 -252 -48 -23 -145 -28 -208 -11
-80 22 -150 95 -148 154 0 29 1 29 14 -12 18 -58 30 -70 100 -104 109 -51 221
-36 295 41 55 57 80 121 87 223 5 70 3 82 -21 133 -38 78 -63 89 -201 90 -60
1 -126 -2 -145 -6 -42 -9 -110 -80 -110 -115 0 -12 -5 -26 -12 -30 -21 -13 0
66 28 103 50 65 73 73 224 73 127 0 137 -1 172 -25z m-12 -47 c66 -48 78 -191
26 -303 -49 -107 -115 -154 -216 -155 -96 0 -211 79 -210 144 1 16 4 14 15
-11 8 -18 16 -33 19 -33 3 0 -2 16 -10 35 -19 45 -19 214 0 259 7 18 29 45 47
59 33 26 38 27 167 27 121 0 135 -2 162 -22z m1089 -64 c19 -24 21 -40 21
-142 0 -105 -2 -118 -22 -139 -12 -13 -30 -23 -40 -23 -17 0 -18 11 -18 146 0
179 14 216 59 158z m-1743 -6 c-3 -13 -6 -87 -6 -165 l0 -143 -35 18 -35 17 0
132 c0 144 7 163 57 163 21 0 24 -3 19 -22z m792 -255 c-18 -22 10 -43 56 -43
55 0 71 11 57 38 -9 17 -7 20 15 25 22 4 28 -1 44 -38 24 -56 70 -107 128
-142 41 -25 57 -28 127 -28 64 0 89 5 125 24 l44 23 23 -27 c27 -31 25 -36
-56 -120 -63 -65 -144 -109 -257 -137 -119 -29 -375 -32 -504 -5 -117 24 -214
74 -278 141 -64 67 -74 99 -41 131 l24 22 57 -28 c82 -41 172 -41 244 1 61 35
99 77 131 146 22 49 25 51 47 41 18 -9 22 -15 14 -24z m62 -13 c0 -5 -5 -10
-11 -10 -5 0 -7 5 -4 10 3 6 8 10 11 10 2 0 4 -4 4 -10z m269 -532 c-34 -29
-109 -92 -165 -140 -57 -49 -108 -88 -115 -88 -6 0 -39 24 -72 53 -68 59 -207
172 -247 201 l-25 18 35 -7 c19 -4 53 -11 75 -16 130 -28 418 -19 513 16 65
24 65 16 1 -37z"/>
<path d="M2155 1681 c-97 -7 -116 -18 -152 -79 -25 -42 -28 -56 -27 -137 0
-108 26 -184 80 -238 98 -97 299 -85 370 23 23 35 27 53 31 147 6 123 -5 177
-43 223 -50 59 -109 73 -259 61z m205 -43 c68 -47 75 -65 75 -206 1 -143 -7
-167 -68 -216 -37 -30 -42 -31 -137 -31 l-99 0 -41 40 c-23 22 -53 65 -68 95
-23 47 -27 67 -27 145 0 77 3 95 23 128 39 62 52 67 188 67 109 0 124 -2 154
-22z"/>
<path d="M1790 1526 c-6 -8 -10 -25 -8 -38 3 -22 8 -23 73 -23 62 0 70 2 73
20 4 19 3 19 -10 2 -11 -14 -25 -18 -63 -15 -49 3 -50 4 -50 36 0 37 1 36 -15
18z"/>
<path d="M1890 1536 c0 -2 7 -7 16 -10 8 -3 12 -2 9 4 -6 10 -25 14 -25 6z"/>
<path d="M1808 1180 c-34 -34 -81 -40 -97 -13 -9 17 -11 16 -30 -1 -19 -17
-19 -21 -6 -46 18 -35 66 -70 95 -70 12 0 35 11 51 24 32 27 65 25 74 -4 3
-10 14 -20 25 -23 39 -10 120 53 120 94 0 21 -3 21 -55 15 -45 -5 -57 -3 -61
9 -7 16 -54 45 -74 45 -6 0 -25 -13 -42 -30z"/>
<path d="M1971 2753 c0 -5 15 -48 32 -98 l32 -90 105 2 c58 1 124 4 148 8 l42
6 -32 27 c-18 15 -36 26 -40 25 -4 -2 -8 2 -8 9 0 6 -3 8 -7 5 -3 -4 -12 -2
-20 5 -11 9 -20 5 -42 -16 l-29 -28 -12 22 c-6 12 -25 26 -41 32 -23 8 -29 16
-29 39 0 21 -6 32 -22 38 -41 15 -78 21 -77 14z"/>
</g>
</svg>
